<mxfile host="Electron" modified="2023-04-16T16:49:26.616Z" agent="Mozilla/5.0 (Windows NT 10.0; Win64; x64) AppleWebKit/537.36 (KHTML, like Gecko) draw.io/21.1.2 Chrome/106.0.5249.199 Electron/21.4.3 Safari/537.36" etag="EIKU__sRvvgIBy-W671W" version="21.1.2" type="device">
  <diagram name="Page-1" id="eW0bg7WfZRuWj_yWLDX-">
    <mxGraphModel dx="1418" dy="828" grid="1" gridSize="10" guides="1" tooltips="1" connect="1" arrows="1" fold="1" page="1" pageScale="1" pageWidth="850" pageHeight="1100" math="0" shadow="0">
      <root>
        <mxCell id="0" />
        <mxCell id="1" parent="0" />
        <mxCell id="JRjmI1aE77-BqFbRmC0a-8" value="&amp;nbsp;" style="html=1;whiteSpace=wrap;strokeColor=none;fillColor=none;" parent="1" vertex="1">
          <mxGeometry x="40" y="160" width="80" height="120" as="geometry" />
        </mxCell>
        <mxCell id="JRjmI1aE77-BqFbRmC0a-7" value="Новая почта" style="html=1;whiteSpace=wrap;rounded=1;verticalAlign=top;fontStyle=1;strokeWidth=2;" parent="1" vertex="1">
          <mxGeometry x="200" y="280" width="160" height="110" as="geometry" />
        </mxCell>
        <mxCell id="JRjmI1aE77-BqFbRmC0a-6" value="&lt;b&gt;Старая почта&lt;/b&gt;" style="html=1;whiteSpace=wrap;rounded=1;verticalAlign=top;strokeWidth=2;" parent="1" vertex="1">
          <mxGeometry x="200" y="160" width="160" height="110" as="geometry" />
        </mxCell>
        <mxCell id="JRjmI1aE77-BqFbRmC0a-3" value="&lt;b&gt;Мобильное приложение&lt;/b&gt;" style="html=1;whiteSpace=wrap;rounded=1;verticalAlign=top;strokeWidth=2;" parent="1" vertex="1">
          <mxGeometry x="200" y="40" width="160" height="110" as="geometry" />
        </mxCell>
        <mxCell id="JRjmI1aE77-BqFbRmC0a-1" value="Пользователь" style="shape=umlActor;verticalLabelPosition=bottom;verticalAlign=top;html=1;strokeWidth=2;" parent="1" vertex="1">
          <mxGeometry x="65" y="190" width="30" height="60" as="geometry" />
        </mxCell>
        <mxCell id="GsPv4F0h6cNClbZ6jKw--6" style="rounded=0;orthogonalLoop=1;jettySize=auto;html=1;exitX=1;exitY=0.5;exitDx=0;exitDy=0;entryX=0;entryY=0.5;entryDx=0;entryDy=0;entryPerimeter=0;dashed=1;strokeWidth=2;endArrow=none;endFill=0;" parent="1" source="JRjmI1aE77-BqFbRmC0a-2" target="GsPv4F0h6cNClbZ6jKw--1" edge="1">
          <mxGeometry relative="1" as="geometry" />
        </mxCell>
        <mxCell id="JRjmI1aE77-BqFbRmC0a-2" value="Заявка на&lt;br&gt;смену электронной почты" style="ellipse;whiteSpace=wrap;html=1;strokeWidth=2;fontStyle=1" parent="1" vertex="1">
          <mxGeometry x="210" y="70" width="140" height="70" as="geometry" />
        </mxCell>
        <mxCell id="GsPv4F0h6cNClbZ6jKw--5" style="rounded=0;orthogonalLoop=1;jettySize=auto;html=1;exitX=1;exitY=0.5;exitDx=0;exitDy=0;entryX=0;entryY=0.5;entryDx=0;entryDy=0;entryPerimeter=0;strokeWidth=2;endArrow=none;endFill=0;dashed=1;" parent="1" source="JRjmI1aE77-BqFbRmC0a-4" target="GsPv4F0h6cNClbZ6jKw--2" edge="1">
          <mxGeometry relative="1" as="geometry" />
        </mxCell>
        <mxCell id="JRjmI1aE77-BqFbRmC0a-4" value="Отмена заявки&lt;br&gt;смены электронной почты" style="ellipse;whiteSpace=wrap;html=1;strokeWidth=2;fontStyle=1" parent="1" vertex="1">
          <mxGeometry x="210" y="190" width="140" height="70" as="geometry" />
        </mxCell>
        <mxCell id="GsPv4F0h6cNClbZ6jKw--4" style="rounded=0;orthogonalLoop=1;jettySize=auto;html=1;exitX=1;exitY=0.5;exitDx=0;exitDy=0;entryX=0;entryY=0.5;entryDx=0;entryDy=0;entryPerimeter=0;dashed=1;endArrow=none;endFill=0;strokeWidth=2;" parent="1" source="JRjmI1aE77-BqFbRmC0a-5" target="GsPv4F0h6cNClbZ6jKw--3" edge="1">
          <mxGeometry relative="1" as="geometry" />
        </mxCell>
        <mxCell id="JRjmI1aE77-BqFbRmC0a-5" value="Подтверждение&lt;br&gt;смены электронной почты" style="ellipse;whiteSpace=wrap;html=1;strokeWidth=2;fontStyle=1" parent="1" vertex="1">
          <mxGeometry x="210" y="310" width="140" height="70" as="geometry" />
        </mxCell>
        <mxCell id="JRjmI1aE77-BqFbRmC0a-9" style="rounded=0;orthogonalLoop=1;jettySize=auto;html=1;exitX=1;exitY=0.5;exitDx=0;exitDy=0;entryX=0;entryY=0.5;entryDx=0;entryDy=0;strokeWidth=2;" parent="1" source="JRjmI1aE77-BqFbRmC0a-8" target="JRjmI1aE77-BqFbRmC0a-2" edge="1">
          <mxGeometry relative="1" as="geometry" />
        </mxCell>
        <mxCell id="JRjmI1aE77-BqFbRmC0a-10" style="rounded=0;orthogonalLoop=1;jettySize=auto;html=1;exitX=1;exitY=0.5;exitDx=0;exitDy=0;entryX=0;entryY=0.5;entryDx=0;entryDy=0;strokeWidth=2;" parent="1" source="JRjmI1aE77-BqFbRmC0a-8" target="JRjmI1aE77-BqFbRmC0a-4" edge="1">
          <mxGeometry relative="1" as="geometry" />
        </mxCell>
        <mxCell id="JRjmI1aE77-BqFbRmC0a-11" style="rounded=0;orthogonalLoop=1;jettySize=auto;html=1;exitX=1;exitY=0.5;exitDx=0;exitDy=0;entryX=0;entryY=0.5;entryDx=0;entryDy=0;strokeWidth=2;" parent="1" source="JRjmI1aE77-BqFbRmC0a-8" target="JRjmI1aE77-BqFbRmC0a-5" edge="1">
          <mxGeometry relative="1" as="geometry" />
        </mxCell>
        <mxCell id="GsPv4F0h6cNClbZ6jKw--1" value="PATCH&amp;nbsp; /api/v1/users/change-email&lt;br&gt;HTTP statuses: 200, 400, 401, 409, 500" style="shape=note2;boundedLbl=1;whiteSpace=wrap;html=1;size=25;verticalAlign=middle;align=left;strokeWidth=2;fontStyle=1;fontFamily=Courier New;" parent="1" vertex="1">
          <mxGeometry x="400" y="82.5" width="400" height="45" as="geometry" />
        </mxCell>
        <mxCell id="GsPv4F0h6cNClbZ6jKw--2" value="GET&amp;nbsp; &amp;nbsp; /api/v1/users/delete-change-email/:token&lt;br&gt;HTTP statuses: 200, 404, 409, 500" style="shape=note2;boundedLbl=1;whiteSpace=wrap;html=1;size=25;verticalAlign=middle;align=left;strokeWidth=2;fontStyle=1;fontFamily=Courier New;" parent="1" vertex="1">
          <mxGeometry x="400" y="202.5" width="400" height="45" as="geometry" />
        </mxCell>
        <mxCell id="GsPv4F0h6cNClbZ6jKw--3" value="GET&amp;nbsp; &amp;nbsp; /api/v1/users/confirm-change-email/:token&lt;br&gt;HTTP statuses: 200, 404, 409, 500" style="shape=note2;boundedLbl=1;whiteSpace=wrap;html=1;size=25;verticalAlign=middle;align=left;strokeWidth=2;fontStyle=1;fontFamily=Courier New;" parent="1" vertex="1">
          <mxGeometry x="400" y="320" width="400" height="47.5" as="geometry" />
        </mxCell>
      </root>
    </mxGraphModel>
  </diagram>
</mxfile>
